Coordinates
version=1
nRows=11
nColumns=40
inDegrees=yes

Units are S.I. units (second, meters, Newtons, ...)
If the header above contains a line with 'inDegrees', this indicates whether rotational values are in degrees (yes) or radians (no).

endheader
time	pelvis_tilt	pelvis_list	pelvis_rotation	pelvis_tx	pelvis_ty	pelvis_tz	hip_flexion_r	hip_adduction_r	hip_rotation_r	knee_angle_r	knee_angle_r_beta	ankle_angle_r	subtalar_angle_r	mtp_angle_r	hip_flexion_l	hip_adduction_l	hip_rotation_l	knee_angle_l	knee_angle_l_beta	ankle_angle_l	subtalar_angle_l	mtp_angle_l	lumbar_extension	lumbar_bending	lumbar_rotation	arm_flex_r	arm_add_r	arm_rot_r	elbow_flex_r	pro_sup_r	wrist_flex_r	wrist_dev_r	arm_flex_l	arm_add_l	arm_rot_l	elbow_flex_l	pro_sup_l	wrist_flex_l	wrist_dev_l
      0.94000000	     88.16703184	     79.55195992	    -82.00215825	      1.42243188	      0.34230689	      0.96771007	     11.11504653	     -2.44585566	     -6.75214844	     33.91609150	      0.59194747	     -6.65314989	      0.00000000	      0.00000000	    -17.90246787	      1.71119847	      3.85536972	      6.80383314	      0.11874929	     -3.92881649	      0.00000000	      0.00000000	    -21.83200584	      1.65455558	     -6.84330655	      1.53524959	    -15.17972324	      9.54468023	     39.42038685	     77.52382219	      0.00000000	      0.00000000	      5.97167514	    -23.63686085	     27.44878409	     52.44612837	     73.25221015	      0.00000000	      0.00000000
      0.94400000	     88.24216679	     79.65070814	    -82.02761164	      1.42726423	      0.34229069	      0.96698413	     11.48905479	     -2.39899351	     -6.68831702	     32.73071768	      0.57125879	     -7.04261327	      0.00000000	      0.00000000	    -18.22927041	      1.68464913	      3.85506476	      6.63294965	      0.11576681	     -3.73613064	      0.00000000	      0.00000000	    -21.78188263	      1.64985320	     -7.01055587	      1.58670921	    -15.08491259	      9.38216976	     39.33520772	     77.44482195	      0.00000000	      0.00000000	      6.13467226	    -23.79837296	     27.50804253	     52.63200603	     73.40629894	      0.00000000	      0.00000000
      0.94800000	     88.17769695	     79.20713663	    -81.93852069	      1.43271683	      0.34251625	      0.96706667	     11.05646832	     -2.23188960	     -6.69742130	     31.21926456	      0.54487896	     -7.74158395	      0.00000000	      0.00000000	    -19.39939585	      1.57449308	      3.91194982	      5.99362525	      0.10460849	     -4.00857159	      0.00000000	      0.00000000	    -22.25674667	      1.75005188	     -7.04616117	      1.54283835	    -15.05277218	      9.13579610	     39.37725309	     77.23458474	      0.00000000	      0.00000000	      6.38716967	    -23.80545751	     27.71322303	     52.75210301	     73.71476102	      0.00000000	      0.00000000
      0.95200000	     88.25524323	     79.43574848	    -82.08808862	      1.43793198	      0.34264575	      0.96590138	     11.64175050	     -2.24665246	     -6.75865568	     30.25675909	      0.52808007	     -7.82931141	      0.00000000	      0.00000000	    -19.64990487	      1.62700701	      3.74632596	      5.75852484	      0.10050522	     -3.80791783	      0.00000000	      0.00000000	    -22.02634097	      1.70955765	     -7.12327422	      1.47475258	    -15.05787336	      9.06607579	     39.43277117	     77.21178295	      0.00000000	      0.00000000	      6.44151754	    -23.90379529	     27.74027465	     52.98269062	     73.80201841	      0.00000000	      0.00000000
      0.95600000	     88.29266683	     79.48867596	    -82.19156417	      1.44287804	      0.34262779	      0.96516570	     11.87320997	     -2.12670340	     -6.42969003	     28.87456912	      0.50395630	     -8.48941766	      0.00000000	      0.00000000	    -20.10170684	      1.63623436	      3.76510512	      5.43663940	      0.09488726	     -3.80839576	      0.00000000	      0.00000000	    -22.01298038	      1.68425649	     -7.13170452	      1.49912750	    -14.98199824	      8.87338237	     39.31641279	     77.14233148	      0.00000000	      0.00000000	      6.67326679	    -23.92613209	     27.79978576	     53.02182984	     74.02726196	      0.00000000	      0.00000000
      0.96000000	     88.33216083	     79.51409647	    -82.28090560	      1.44803046	      0.34273720	      0.96440143	     12.09697804	     -2.06157126	     -6.40638534	     27.62093274	      0.48207622	     -8.99642200	      0.00000000	      0.00000000	    -20.57443910	      1.64367978	      3.67246418	      5.15894067	      0.09004050	     -3.76345829	      0.00000000	      0.00000000	    -22.01195904	      1.67661702	     -7.16753306	      1.46784054	    -14.96866335	      8.78086037	     39.32714268	     77.09559271	      0.00000000	      0.00000000	      6.82541360	    -23.92463331	     27.89452240	     53.18933694	     74.09687657	      0.00000000	      0.00000000
      0.96400000	     88.36005394	     79.50459486	    -82.40988325	      1.45333082	      0.34277443	      0.96361456	     12.26106221	     -1.97920646	     -6.33815843	     26.31665884	      0.45931234	     -9.63463664	      0.00000000	      0.00000000	    -21.14187605	      1.66302586	      3.52916433	      4.79229693	      0.08364136	     -3.77592302	      0.00000000	      0.00000000	    -22.01497117	      1.66111890	     -7.18172359	      1.58212252	    -14.95454064	      8.84747564	     39.07521529	     77.01461150	      0.00000000	      0.00000000	      6.93911764	    -23.99576329	     28.02187223	     53.35860460	     74.13302955	      0.00000000	      0.00000000
      0.96800000	     88.37303318	     79.30658880	    -82.52588237	      1.45897271	      0.34295778	      0.96301631	     12.14825242	     -1.86162816	     -6.29985170	     24.94778584	      0.43542100	    -10.15773854	      0.00000000	      0.00000000	    -22.06548467	      1.66034999	      3.43376616	      4.15357311	      0.07249353	     -3.96716986	      0.00000000	      0.00000000	    -22.22053594	      1.68054783	     -7.11696766	      1.35338909	    -14.94436256	      8.42762619	     39.35013700	     76.84199691	      0.00000000	      0.00000000	      7.09619108	    -24.00131604	     28.11053212	     53.46231258	     74.19968254	      0.00000000	      0.00000000
      0.97200000	     88.43829873	     79.48848259	    -82.70189649	      1.46402651	      0.34300660	      0.96189485	     12.56868684	     -1.82293702	     -6.22024935	     23.74844615	      0.41448858	    -10.72435829	      0.00000000	      0.00000000	    -22.34901132	      1.70364860	      3.50041688	      3.95094726	      0.06895704	     -3.84117616	      0.00000000	      0.00000000	    -22.06080660	      1.63803353	     -7.10292531	      1.33871190	    -14.92048806	      8.28074610	     39.31400216	     76.77552273	      0.00000000	      0.00000000	      7.24517177	    -23.97434957	     28.12695982	     53.53850197	     74.25661908	      0.00000000	      0.00000000
      0.97600000	     88.43164182	     79.46622780	    -82.73510286	      1.46930516	      0.34313967	      0.96104230	     12.67713735	     -1.74051252	     -6.30741329	     22.41767003	      0.39126215	    -11.30191341	      0.00000000	      0.00000000	    -22.89460318	      1.69238796	      3.43385978	      3.64419971	      0.06360328	     -3.88500962	      0.00000000	      0.00000000	    -22.07915439	      1.65733844	     -7.14667801	      1.43117866	    -14.94306655	      8.43729538	     39.12641682	     76.52978361	      0.00000000	      0.00000000	      7.39586421	    -23.97631167	     28.17567482	     53.61666960	     74.44267262	      0.00000000	      0.00000000
      0.98000000	     88.49153919	     79.66871580	    -82.89073037	      1.47475530	      0.34320387	      0.95974433	     13.21651200	     -1.72825061	     -6.50471307	     21.53209277	      0.37580591	    -11.45433538	      0.00000000	      0.00000000	    -23.15559415	      1.74726356	      3.22723804	      3.46871243	      0.06054045	     -3.67956577	      0.00000000	      0.00000000	    -21.83963930	      1.61019519	     -7.17458105	      1.37028010	    -14.92448432	      8.35384857	     39.07101937	     76.50130742	      0.00000000	      0.00000000	      7.42150880	    -24.00281941	     28.21397591	     53.74588926	     74.47139287	      0.00000000	      0.00000000
